# xmcd CD database file
#
# Track frame offsets:
#	150
#	20752
#	39892
#	60427
#
# Disc length: 1058 seconds
#
# Revision: 0
# Processed by: cddbd v1.5.1PL2 Copyright (c) Steve Scherf et al.
# Submitted via: CDex 1.51
#
DISCID=27042004
DTITLE=根食　真実 - はじまりの一歩　　〜Walk My Way〜
DYEAR=2005
DGENRE=J-Pop
TTITLE0=始まりの一歩　〜Walk My Way〜
TTITLE1=Blue Sky Blues
TTITLE2=始まりの一歩　(instrumental)
TTITLE3=Blue Sky Blues (instrumental)
EXTD=YEAR: 2005 07 27
EXTT0=
EXTT1=
EXTT2=
EXTT3=
PLAYORDER=
